<svg viewBox="0 0 100 100" xmlns="http://www.w3.org/2000/svg">
<path d="M0,0 L100,0 L100,100 L0,100 L0,0" fill="white" stroke="black" stroke-width="1"/>
<path d="M0,10 L10,10 z" fill="white" stroke="black" stroke-width="1"/>
<path d="M10,10 L20,10 z" fill="white" stroke="black" stroke-width="1"/>
<path d="M30,0 L30,10 z" fill="white" stroke="black" stroke-width="1"/>
<path d="M30,10 L40,10 z" fill="white" stroke="black" stroke-width="1"/>
<path d="M40,10 L50,10 z" fill="white" stroke="black" stroke-width="1"/>
<path d="M50,10 L60,10 z" fill="white" stroke="black" stroke-width="1"/>
<path d="M60,10 L70,10 z" fill="white" stroke="black" stroke-width="1"/>
<path d="z" fill="white" stroke="black" stroke-width="1"/>
<path d="M90,0 L90,10 M80,10 L90,10 z" fill="white" stroke="black" stroke-width="1"/>
<path d="M100,0 L100,10 z" fill="white" stroke="black" stroke-width="1"/>
<path d="M10,10 L10,20 z" fill="white" stroke="black" stroke-width="1"/>
<path d="M20,10 L20,20 z" fill="white" stroke="black" stroke-width="1"/>
<path d="z" fill="white" stroke="black" stroke-width="1"/>
<path d="M40,10 L40,20 M30,20 L40,20 z" fill="white" stroke="black" stroke-width="1"/>
<path d="M40,20 L50,20 z" fill="white" stroke="black" stroke-width="1"/>
<path d="M50,20 L60,20 z" fill="white" stroke="black" stroke-width="1"/>
<path d="M70,10 L70,20 z" fill="white" stroke="black" stroke-width="1"/>
<path d="M80,10 L80,20 z" fill="white" stroke="black" stroke-width="1"/>
<path d="M90,10 L90,20 z" fill="white" stroke="black" stroke-width="1"/>
<path d="M100,10 L100,20 z" fill="white" stroke="black" stroke-width="1"/>
<path d="M0,30 L10,30 z" fill="white" stroke="black" stroke-width="1"/>
<path d="M10,30 L20,30 z" fill="white" stroke="black" stroke-width="1"/>
<path d="z" fill="white" stroke="black" stroke-width="1"/>
<path d="M40,20 L40,30 M30,30 L40,30 z" fill="white" stroke="black" stroke-width="1"/>
<path d="M40,30 L50,30 z" fill="white" stroke="black" stroke-width="1"/>
<path d="z" fill="white" stroke="black" stroke-width="1"/>
<path d="M70,20 L70,30 M60,30 L70,30 z" fill="white" stroke="black" stroke-width="1"/>
<path d="M80,20 L80,30 z" fill="white" stroke="black" stroke-width="1"/>
<path d="z" fill="white" stroke="black" stroke-width="1"/>
<path d="M100,20 L100,30 M90,30 L100,30 z" fill="white" stroke="black" stroke-width="1"/>
<path d="M10,30 L10,40 z" fill="white" stroke="black" stroke-width="1"/>
<path d="M10,40 L20,40 z" fill="white" stroke="black" stroke-width="1"/>
<path d="M20,40 L30,40 z" fill="white" stroke="black" stroke-width="1"/>
<path d="M30,40 L40,40 z" fill="white" stroke="black" stroke-width="1"/>
<path d="M40,40 L50,40 z" fill="white" stroke="black" stroke-width="1"/>
<path d="M60,30 L60,40 z" fill="white" stroke="black" stroke-width="1"/>
<path d="M60,40 L70,40 z" fill="white" stroke="black" stroke-width="1"/>
<path d="M70,40 L80,40 z" fill="white" stroke="black" stroke-width="1"/>
<path d="z" fill="white" stroke="black" stroke-width="1"/>
<path d="M100,30 L100,40 M90,40 L100,40 z" fill="white" stroke="black" stroke-width="1"/>
<path d="M0,50 L10,50 z" fill="white" stroke="black" stroke-width="1"/>
<path d="M20,40 L20,50 z" fill="white" stroke="black" stroke-width="1"/>
<path d="M30,40 L30,50 z" fill="white" stroke="black" stroke-width="1"/>
<path d="z" fill="white" stroke="black" stroke-width="1"/>
<path d="M40,50 L50,50 z" fill="white" stroke="black" stroke-width="1"/>
<path d="M60,40 L60,50 M50,50 L60,50 z" fill="white" stroke="black" stroke-width="1"/>
<path d="M60,50 L70,50 z" fill="white" stroke="black" stroke-width="1"/>
<path d="M80,40 L80,50 z" fill="white" stroke="black" stroke-width="1"/>
<path d="M90,40 L90,50 z" fill="white" stroke="black" stroke-width="1"/>
<path d="M100,40 L100,50 z" fill="white" stroke="black" stroke-width="1"/>
<path d="M0,60 L10,60 z" fill="white" stroke="black" stroke-width="1"/>
<path d="M10,60 L20,60 z" fill="white" stroke="black" stroke-width="1"/>
<path d="z" fill="white" stroke="black" stroke-width="1"/>
<path d="M30,60 L40,60 z" fill="white" stroke="black" stroke-width="1"/>
<path d="M50,50 L50,60 M40,60 L50,60 z" fill="white" stroke="black" stroke-width="1"/>
<path d="M50,60 L60,60 z" fill="white" stroke="black" stroke-width="1"/>
<path d="M70,50 L70,60 z" fill="white" stroke="black" stroke-width="1"/>
<path d="M70,60 L80,60 z" fill="white" stroke="black" stroke-width="1"/>
<path d="M80,60 L90,60 z" fill="white" stroke="black" stroke-width="1"/>
<path d="M100,50 L100,60 z" fill="white" stroke="black" stroke-width="1"/>
<path d="M10,60 L10,70 z" fill="white" stroke="black" stroke-width="1"/>
<path d="z" fill="white" stroke="black" stroke-width="1"/>
<path d="M30,60 L30,70 M20,70 L30,70 z" fill="white" stroke="black" stroke-width="1"/>
<path d="M30,70 L40,70 z" fill="white" stroke="black" stroke-width="1"/>
<path d="M40,70 L50,70 z" fill="white" stroke="black" stroke-width="1"/>
<path d="z" fill="white" stroke="black" stroke-width="1"/>
<path d="M70,60 L70,70 M60,70 L70,70 z" fill="white" stroke="black" stroke-width="1"/>
<path d="M80,60 L80,70 z" fill="white" stroke="black" stroke-width="1"/>
<path d="M90,60 L90,70 z" fill="white" stroke="black" stroke-width="1"/>
<path d="M100,60 L100,70 z" fill="white" stroke="black" stroke-width="1"/>
<path d="M10,70 L10,80 z" fill="white" stroke="black" stroke-width="1"/>
<path d="M20,70 L20,80 z" fill="white" stroke="black" stroke-width="1"/>
<path d="M30,70 L30,80 z" fill="white" stroke="black" stroke-width="1"/>
<path d="M30,80 L40,80 z" fill="white" stroke="black" stroke-width="1"/>
<path d="M50,70 L50,80 z" fill="white" stroke="black" stroke-width="1"/>
<path d="M50,80 L60,80 z" fill="white" stroke="black" stroke-width="1"/>
<path d="z" fill="white" stroke="black" stroke-width="1"/>
<path d="M80,70 L80,80 M70,80 L80,80 z" fill="white" stroke="black" stroke-width="1"/>
<path d="M80,80 L90,80 z" fill="white" stroke="black" stroke-width="1"/>
<path d="M100,70 L100,80 z" fill="white" stroke="black" stroke-width="1"/>
<path d="M10,80 L10,90 z" fill="white" stroke="black" stroke-width="1"/>
<path d="z" fill="white" stroke="black" stroke-width="1"/>
<path d="M30,80 L30,90 M20,90 L30,90 z" fill="white" stroke="black" stroke-width="1"/>
<path d="M30,90 L40,90 z" fill="white" stroke="black" stroke-width="1"/>
<path d="M40,90 L50,90 z" fill="white" stroke="black" stroke-width="1"/>
<path d="M50,90 L60,90 z" fill="white" stroke="black" stroke-width="1"/>
<path d="M60,90 L70,90 z" fill="white" stroke="black" stroke-width="1"/>
<path d="M80,80 L80,90 z" fill="white" stroke="black" stroke-width="1"/>
<path d="M90,80 L90,90 z" fill="white" stroke="black" stroke-width="1"/>
<path d="M100,80 L100,90 z" fill="white" stroke="black" stroke-width="1"/>
<path d="M0,100 L10,100 z" fill="white" stroke="black" stroke-width="1"/>
<path d="M10,100 L20,100 z" fill="white" stroke="black" stroke-width="1"/>
<path d="M20,100 L30,100 z" fill="white" stroke="black" stroke-width="1"/>
<path d="M30,100 L40,100 z" fill="white" stroke="black" stroke-width="1"/>
<path d="M40,100 L50,100 z" fill="white" stroke="black" stroke-width="1"/>
<path d="M50,100 L60,100 z" fill="white" stroke="black" stroke-width="1"/>
<path d="M60,100 L70,100 z" fill="white" stroke="black" stroke-width="1"/>
<path d="M70,100 L80,100 z" fill="white" stroke="black" stroke-width="1"/>
<path d="M80,100 L90,100 z" fill="white" stroke="black" stroke-width="1"/>
<path d="M100,90 L100,100 M90,100 L100,100 z" fill="white" stroke="black" stroke-width="1"/>
</svg>