<svg viewBox="0 0 100 100" xmlns="http://www.w3.org/2000/svg">
<path d="M0,0 L100,0 L100,100 L0,100 L0,0" fill="white" stroke="black" stroke-width="1"/>
<path d="z" fill="white" stroke="black" stroke-width="1"/>
<path d="M20,0 L20,10 M10,10 L20,10 z" fill="white" stroke="black" stroke-width="1"/>
<path d="M30,0 L30,10 z" fill="white" stroke="black" stroke-width="1"/>
<path d="M30,10 L40,10 z" fill="white" stroke="black" stroke-width="1"/>
<path d="M50,0 L50,10 z" fill="white" stroke="black" stroke-width="1"/>
<path d="z" fill="white" stroke="black" stroke-width="1"/>
<path d="M60,10 L70,10 z" fill="white" stroke="black" stroke-width="1"/>
<path d="M80,0 L80,10 M70,10 L80,10 z" fill="white" stroke="black" stroke-width="1"/>
<path d="z" fill="white" stroke="black" stroke-width="1"/>
<path d="M100,0 L100,10 M90,10 L100,10 z" fill="white" stroke="black" stroke-width="1"/>
<path d="M10,10 L10,20 z" fill="white" stroke="black" stroke-width="1"/>
<path d="M20,10 L20,20 z" fill="white" stroke="black" stroke-width="1"/>
<path d="M30,10 L30,20 z" fill="white" stroke="black" stroke-width="1"/>
<path d="M40,10 L40,20 z" fill="white" stroke="black" stroke-width="1"/>
<path d="M50,10 L50,20 z" fill="white" stroke="black" stroke-width="1"/>
<path d="M60,10 L60,20 z" fill="white" stroke="black" stroke-width="1"/>
<path d="z" fill="white" stroke="black" stroke-width="1"/>
<path d="M80,10 L80,20 M70,20 L80,20 z" fill="white" stroke="black" stroke-width="1"/>
<path d="M90,10 L90,20 z" fill="white" stroke="black" stroke-width="1"/>
<path d="M100,10 L100,20 z" fill="white" stroke="black" stroke-width="1"/>
<path d="M10,20 L10,30 z" fill="white" stroke="black" stroke-width="1"/>
<path d="M20,20 L20,30 z" fill="white" stroke="black" stroke-width="1"/>
<path d="M20,30 L30,30 z" fill="white" stroke="black" stroke-width="1"/>
<path d="z" fill="white" stroke="black" stroke-width="1"/>
<path d="M40,30 L50,30 z" fill="white" stroke="black" stroke-width="1"/>
<path d="M60,20 L60,30 M50,30 L60,30 z" fill="white" stroke="black" stroke-width="1"/>
<path d="M60,30 L70,30 z" fill="white" stroke="black" stroke-width="1"/>
<path d="z" fill="white" stroke="black" stroke-width="1"/>
<path d="M90,20 L90,30 M80,30 L90,30 z" fill="white" stroke="black" stroke-width="1"/>
<path d="M100,20 L100,30 z" fill="white" stroke="black" stroke-width="1"/>
<path d="M0,40 L10,40 z" fill="white" stroke="black" stroke-width="1"/>
<path d="M20,30 L20,40 z" fill="white" stroke="black" stroke-width="1"/>
<path d="M30,30 L30,40 z" fill="white" stroke="black" stroke-width="1"/>
<path d="M30,40 L40,40 z" fill="white" stroke="black" stroke-width="1"/>
<path d="z" fill="white" stroke="black" stroke-width="1"/>
<path d="M60,30 L60,40 M50,40 L60,40 z" fill="white" stroke="black" stroke-width="1"/>
<path d="z" fill="white" stroke="black" stroke-width="1"/>
<path d="M80,30 L80,40 M70,40 L80,40 z" fill="white" stroke="black" stroke-width="1"/>
<path d="M90,30 L90,40 z" fill="white" stroke="black" stroke-width="1"/>
<path d="M100,30 L100,40 z" fill="white" stroke="black" stroke-width="1"/>
<path d="z" fill="white" stroke="black" stroke-width="1"/>
<path d="M20,40 L20,50 M10,50 L20,50 z" fill="white" stroke="black" stroke-width="1"/>
<path d="M20,50 L30,50 z" fill="white" stroke="black" stroke-width="1"/>
<path d="M40,40 L40,50 z" fill="white" stroke="black" stroke-width="1"/>
<path d="z" fill="white" stroke="black" stroke-width="1"/>
<path d="M60,40 L60,50 M50,50 L60,50 z" fill="white" stroke="black" stroke-width="1"/>
<path d="z" fill="white" stroke="black" stroke-width="1"/>
<path d="M80,40 L80,50 M70,50 L80,50 z" fill="white" stroke="black" stroke-width="1"/>
<path d="M90,40 L90,50 z" fill="white" stroke="black" stroke-width="1"/>
<path d="M100,40 L100,50 z" fill="white" stroke="black" stroke-width="1"/>
<path d="M0,60 L10,60 z" fill="white" stroke="black" stroke-width="1"/>
<path d="M10,60 L20,60 z" fill="white" stroke="black" stroke-width="1"/>
<path d="M30,50 L30,60 z" fill="white" stroke="black" stroke-width="1"/>
<path d="M40,50 L40,60 z" fill="white" stroke="black" stroke-width="1"/>
<path d="z" fill="white" stroke="black" stroke-width="1"/>
<path d="M60,50 L60,60 M50,60 L60,60 z" fill="white" stroke="black" stroke-width="1"/>
<path d="M70,50 L70,60 z" fill="white" stroke="black" stroke-width="1"/>
<path d="M70,60 L80,60 z" fill="white" stroke="black" stroke-width="1"/>
<path d="M80,60 L90,60 z" fill="white" stroke="black" stroke-width="1"/>
<path d="M100,50 L100,60 z" fill="white" stroke="black" stroke-width="1"/>
<path d="z" fill="white" stroke="black" stroke-width="1"/>
<path d="M20,60 L20,70 M10,70 L20,70 z" fill="white" stroke="black" stroke-width="1"/>
<path d="z" fill="white" stroke="black" stroke-width="1"/>
<path d="M30,70 L40,70 z" fill="white" stroke="black" stroke-width="1"/>
<path d="M50,60 L50,70 M40,70 L50,70 z" fill="white" stroke="black" stroke-width="1"/>
<path d="M50,70 L60,70 z" fill="white" stroke="black" stroke-width="1"/>
<path d="M70,60 L70,70 z" fill="white" stroke="black" stroke-width="1"/>
<path d="z" fill="white" stroke="black" stroke-width="1"/>
<path d="M80,70 L90,70 z" fill="white" stroke="black" stroke-width="1"/>
<path d="M100,60 L100,70 M90,70 L100,70 z" fill="white" stroke="black" stroke-width="1"/>
<path d="z" fill="white" stroke="black" stroke-width="1"/>
<path d="M10,80 L20,80 z" fill="white" stroke="black" stroke-width="1"/>
<path d="M30,70 L30,80 M20,80 L30,80 z" fill="white" stroke="black" stroke-width="1"/>
<path d="M40,70 L40,80 z" fill="white" stroke="black" stroke-width="1"/>
<path d="M40,80 L50,80 z" fill="white" stroke="black" stroke-width="1"/>
<path d="M50,80 L60,80 z" fill="white" stroke="black" stroke-width="1"/>
<path d="M70,70 L70,80 z" fill="white" stroke="black" stroke-width="1"/>
<path d="z" fill="white" stroke="black" stroke-width="1"/>
<path d="M80,80 L90,80 z" fill="white" stroke="black" stroke-width="1"/>
<path d="M100,70 L100,80 M90,80 L100,80 z" fill="white" stroke="black" stroke-width="1"/>
<path d="M0,90 L10,90 z" fill="white" stroke="black" stroke-width="1"/>
<path d="z" fill="white" stroke="black" stroke-width="1"/>
<path d="M20,90 L30,90 z" fill="white" stroke="black" stroke-width="1"/>
<path d="M40,80 L40,90 M30,90 L40,90 z" fill="white" stroke="black" stroke-width="1"/>
<path d="M50,80 L50,90 z" fill="white" stroke="black" stroke-width="1"/>
<path d="M60,80 L60,90 z" fill="white" stroke="black" stroke-width="1"/>
<path d="M70,80 L70,90 z" fill="white" stroke="black" stroke-width="1"/>
<path d="M80,80 L80,90 z" fill="white" stroke="black" stroke-width="1"/>
<path d="M80,90 L90,90 z" fill="white" stroke="black" stroke-width="1"/>
<path d="M100,80 L100,90 z" fill="white" stroke="black" stroke-width="1"/>
<path d="M0,100 L10,100 z" fill="white" stroke="black" stroke-width="1"/>
<path d="M10,100 L20,100 z" fill="white" stroke="black" stroke-width="1"/>
<path d="M20,100 L30,100 z" fill="white" stroke="black" stroke-width="1"/>
<path d="M30,100 L40,100 z" fill="white" stroke="black" stroke-width="1"/>
<path d="M40,100 L50,100 z" fill="white" stroke="black" stroke-width="1"/>
<path d="M50,100 L60,100 z" fill="white" stroke="black" stroke-width="1"/>
<path d="M60,100 L70,100 z" fill="white" stroke="black" stroke-width="1"/>
<path d="M70,100 L80,100 z" fill="white" stroke="black" stroke-width="1"/>
<path d="M80,100 L90,100 z" fill="white" stroke="black" stroke-width="1"/>
<path d="M100,90 L100,100 M90,100 L100,100 z" fill="white" stroke="black" stroke-width="1"/>
</svg>